<svg xmlns="http://www.w3.org/2000/svg" width="65.339 " height="41.7764" viewBox="0 0 65.34 41.78">
 
        <path id="Path_1438" data-name="Path 1438" d="M58.21,24.18c-.2-1-.6-1.9-.8-3-.1-.7-.1-1.5-.1-2.2h1.8c.7,.3,1.3,.9,1.7,1.5,.8,1.3,.7,3-.1,4.2-.4,.7-1,1.2-1.6,1.8-.2,.2-.4,.4-.6,.5,0-.9-.1-1.8-.3-2.8Zm-6.1,2.8c-.1-1.2-.4-2.5-.6-3.7,1.7-.2,3.3-.6,4.7-1.6,.2-.2,.4-.3,.6-.5v.1c.1,1,.5,2,.8,3,.2,.9,.3,1.8,.2,2.7v.8c-.3,.2-.5,.5-.8,.7-.8,.8-1.7,1.5-2.6,2.3,0,0-.2,0-.3,.1-.7,.1-1.4,.2-2.1,.2h0c0-1.5,.2-2.8,.1-4.1ZM14.91,10.28c.6-1.5,1.2-3.1,2.1-4.5,1.5-2.6,3.8-4.9,6.9-5.4,1.7-.3,3.5,0,5.3,.3,1.9,.2,3.7,.5,5.6,.7,1.3,.2,2.5,.3,3.8,.5l-3,1.5c-1.6,.7-3.3,1.4-5,2-.8,.3-1.7,.6-2.6,.9s-1.8,.5-2.7,.3c-1.5-.3-2.5-1.5-3.3-2.7-.2-.3-.8,0-.5,.3,.8,1.1,1.7,2.3,3.1,2.8,1.6,.6,3.3-.1,4.9-.6,3.3-1.2,6.5-2.4,9.6-4.1,.2-.1,.4-.2,.5-.3l.7-.4c1-.6,2-1.2,3.1-1.4,1.4-.4,2.9-.1,4.2,.7,2.8,1.6,4.1,4.7,4.8,7.7,.8,3.2,1.2,6.5,2.8,9.4,.2,.3,.3,.6,.6,.8,.2,.2,.5,.2,.8,.3v1.3l-.2,.2c-2,2-5,2.2-7.7,2.3-3.6,.2-7.2,.4-10.8,.6l-5.4,.3c-1.7,.1-3.3,.2-5,.2-3.3,0-6.7-.3-9.7-1.7-.8-.3-1.5-.7-2.3-1.1l-2.1-1.2c-.7-.4-1.3-.9-1.8-1.4l1.2-3c.8-1.8,1.5-3.6,2.1-5.3ZM51.41,30.88h0l-6.3,.8c0-.5-.1-1.1-.2-1.6l-.3-2.1c-.1-1.4-.1-2.8,0-4.3v-.1c1.1-.1,2.1-.1,3.2-.2,1-.1,2.1-.1,3.1-.2h0c.2,1.2,.5,2.5,.6,3.7,0,1.4-.1,2.7-.1,4ZM8.91,25.48c.5-.7,.7-1.5,1-2.3,.3-.9,.7-1.8,1-2.6l.6-1.5c1.4,1.3,3.2,2.2,4.8,3,1.5,.8,3.1,1.4,4.8,1.8,1.6,.4,3.3,.6,5,.6,1.7,.1,3.4,0,5.2-.1l5.4-.3c2.4-.1,4.8-.3,7.3-.4h0c-.1,1.4-.1,2.8,0,4.2,.1,.7,.1,1.3,.2,2,.1,.6,.3,1.3,.3,1.9-.3,0-.6,.1-.8,.1-1.7,.2-3.5,.5-5.2,.5s-3.4-.3-5.1-.3c-3.4-.2-6.8,.1-10.2,0-1.7-.1-3.4-.2-5-.6-1.6-.4-3.2-.9-4.8-1.5-.8-.3-1.6-.6-2.3-.9-.7-.3-1.3-.6-1.7-1.3-.3-.5-.6-1.1-.8-1.7,0-.3,.2-.4,.3-.6Zm11.4,16.3c-3.4,0-6.8-.2-10.1-.9-1.6-.3-3.2-.8-4.7-1.4-1.3-.5-2.6-1.1-3.6-2.1-1-.8-1.8-2-1.9-3.3-.1-1.6,.7-3.1,1.7-4.3,.9-1.1,2.1-2,3.4-2.6,.7-.3,1.3-.5,2-.7,.3-.1,.5-.2,.7-.3,.1,.2,.2,.4,.2,.6,.3,.7,.6,1.4,1.2,1.9,.6,.5,1.3,.7,2,1,1.6,.6,3.2,1.3,4.8,1.8,1.6,.5,3.3,.8,5,.9,3.4,.3,6.9,0,10.4,0,1.8,0,3.5,.2,5.2,.3,1.8,.1,3.5,0,5.3-.2,.8-.1,1.7-.2,2.5-.3h.3c2.6-.3,5.2-.6,7.8-.9,.2,0,.4,0,.6-.1-.2,.1-.3,.2-.5,.3-1.5,1-3.1,1.8-4.7,2.7-1.6,.9-3.3,1.8-4.9,2.7l-7.7,4.2c-1.7,.1-3.3,.2-5,.3-3.1,.3-6.5,.4-10,.4Zm45-18.9c-.1,1.4-.4,2.8-.8,4.1-.4,1.4-.9,2.8-1.7,4-1,1.3-2.3,2.1-3.7,2.9-1.4,1-2.7,2.1-4.2,3.1-1.3,.9-2.7,1.6-4.2,2.1-3,1.1-6.2,1.5-9.3,1.8-1.4,.1-2.9,.2-4.3,.3l6-3.3c1.7-.9,3.4-1.9,5.1-2.8,1.6-.9,3.3-1.8,4.9-2.8,1.5-1,2.9-2.2,4.2-3.4,.7-.6,1.4-1.3,2.1-1.9,.6-.5,1.2-1.1,1.7-1.8,.9-1.3,1-3,.4-4.5-.3-.7-.8-1.3-1.4-1.8h2.1c.8,0,1.6,.1,2.1,.6,1,.9,1.1,2.3,1,3.4Z"  fill="#004177"/>

</svg>


