<svg xmlns="http://www.w3.org/2000/svg" width="63.9127" height="48.3914" viewBox="0 0 63.91 48.39">

        <path id="Path_1441" data-name="Path 1441" d="M55.11,28.01c-.1,.8-.2,1.5-.4,2.4-.4-.6-1.1-1-1.8-.9,.4-1.1,.7-2.4,.9-3.6,.5,.1,.9,.4,1.3,.7,.1,0,.1,1,0,1.4Zm-1.9,2.1c.3,0,.5,.2,.7,.4l.3,.3c0,.1,.1,.1,.1,.2,0,0,.1,.1,.1,.2-.3,1.3-.6,2.6-.6,3.9-.7-.4-1.3-.7-2-1v-.2c0-1.2,.4-2.6,.7-3.7,0-.1,.3-.1,.3-.1h.4Zm2-4.5c-.3-.2-.7-.4-1.1-.5h-.1c.2-2,0-4.2-.7-6.1,1.1,1.9,1.7,4.3,1.9,6.6ZM44.11,3.71c.5-.5,1-.9,1.6-1.2s1.3-.6,2-.8c.6-.1,1.6-.3,2.1-.1,.4,.2,.7,.9,.9,1.3,.3,.6,.4,1.3,0,1.9-.3,.4-.9,.7-1.4,.8-.7,.2-1.3,.4-2,.6-.8,.2-1.5,.5-2.5,.3-.5-.1-.9-.3-1.3-.5h.1c.4-.1,.8-.3,1.2-.6,.7-.6,1.6-1,2.4-1.5,.2-.1,.5-.4,.4-.6-.1-.1-.2-.2-.4-.2s-.3,.1-.4,.2c-.8,.5-1.5,.9-2.3,1.4-.4,.2-.8,.5-1.3,.6-.4,.1-1,.1-1.1-.4,.6-.1,1.5-.7,2-1.2Zm-1.9,2.4c1.9,1.6,3.9,3,5.3,5,.6,.8,1.1,1.7,1.7,2.5,.7,.9,1.5,1.7,2.1,2.6,1.1,1.6,1.6,3.5,1.9,5.3,.2,1.2,.2,2.5,.1,3.8-.1,1.3-.5,2.7-.9,4-.5,1.4-.9,3-1,4.5-1.6-.8-3.2-1.6-4.8-2.5h0c0-1.8,.3-3.6,.6-5.3s.2-3.5,.1-5.2c-.1-1.7-.2-3.4-.6-5.1-.4-1.6-1-3.1-1.7-4.6-.8-1.6-1.8-3.1-3-4.6,0-.2,.2-.4,.2-.4Zm3.3,9.9c.1,.1,.3,.1,.4,.1,.2,.8,.3,1.6,.4,2.4,0,.2,0,1.9,.1,2-1-.5-2-.9-3.1-1.3,.5-1,.9-2.1,1.3-3.2,0-.1,.1-.2,.1-.3,.3,.1,.5,.2,.8,.3Zm-.6-1l.3-1.2c.2,.5,.3,.9,.5,1.4v.1c-.2-.1-.5-.2-.8-.3Zm-7.8,2.5c-.2,.5-.4,1-.7,1.5-.2,.5-.5,1-.7,1.4-2.3-.8-4.5-1.5-6.8-2.3,.6-.9,1.1-1.7,1.7-2.7l.2-.2c2.1,.9,4.2,1.6,6.3,2.3Zm-5.9-2.7c.8-1.2,1.7-2.4,2.6-3.5,1.7,.5,3.4,1.2,5.1,1.8l-.9,2.1-.6,1.5c-2.1-.6-4.1-1.2-6.2-1.9Zm5.8,4.8c.3-.6,.5-1.2,.8-1.7,1,.4,2,.7,3.1,1.1l1.5,.6c-.4,.9-.8,1.8-1.2,2.8-1.2-.4-2.6-.8-3.8-1.2l-.9-.3c.1-.5,.3-.9,.5-1.3Zm1.1-2.5c.5-1.2,1-2.5,1.5-3.7,.4,.2,.9,.4,1.3,.6,1,.4,2,.9,3,1.3-.4,1.2-.8,2.4-1.4,3.6-1.3-.5-2.9-1.1-4.4-1.8Zm6.6-4.5c0,.3-.1,.6-.2,.7-.1,.4-.1,.8-.2,1.2-.7-.2-1.4-.6-2.1-.9-.7-.3-1.5-.6-2.2-1,.1-.2,1-2.7,1.1-2.7,0,0,2,.9,2.3,1s.6,.3,.9,.5c.1,.1,.3,.6,.4,.7v.5Zm-3.3-3.1c.2-.5,.4-.9,.6-1.4h0c.6,.8,1.1,1.6,1.6,2.5-.7-.5-1.5-.8-2.2-1.1Zm-.3-1.4c-.1,.2-.1,.3-.2,.5l-.3,.7c-.9-.4-1.9-.7-3-1-.3-.1-.6-.2-.8-.3l1.5-1.5h0c.5,.5,1.2,.7,1.8,.7,.3,0,.5-.1,.8-.2,.1,0,.3,.4,.3,.4,0,0,0,.6-.1,.7Zm-3.4,.8c.2,.1,.4,.1,.5,.2,.4,.1,.8,.3,1.2,.4,.2,.1,.4,.1,.6,.2,.3,.2,.3,0,.2,.4,0,.2-1,2.4-1,2.4-1.6-.6-3.3-1.2-4.9-1.8,.3-.4,.7-.8,1-1.2l.6-.6q.3-.3,.6-.2c.5-.1,.8,0,1.2,.2Zm-4.1,1.6c-.9-.3-1.8-.5-2.8-.8,.4-.3,.8-.5,1.1-.8l.9-.6c.2-.2,.6-.6,.9-.6,.2,0,.7,.2,.9,.2,.3,.1,.8,.2,1,.4-.3,.4-.7,.7-1,1.1-.2,0-1,1.1-1,1.1Zm-.5,.6c-.9,1.1-1.7,2.4-2.6,3.5-1.1-.3-2.3-.7-3.5-1-.4-.1-.8-.2-1.1-.3,1.3-1,2.8-2,4.1-3,1,.2,2,.5,3.1,.8Zm-3.1,4.2c-.6,.9-1.3,1.9-1.9,2.9-1.1-.3-2.3-.6-3.4-.9-.8-.2-1.6-.4-2.5-.5,.7-.8,1.5-1.6,2.4-2.4,.2-.1,.3-.3,.5-.4,1.7,.3,3.3,.8,4.9,1.3Zm-2.4,3.5l-1.2,1.8c-.2,.4-.8,1.4-.9,2.1-2-.5-4.1-.9-6.2-1.3,0,0,0-.1,.1-.2,.5-1.4,1.3-2.8,2.4-4,1.9,.4,3.9,1,5.8,1.6Zm-.8,2.6l.6-.9c.3-.5,.7-1,1-1.5,.5,.1,.9,.3,1.4,.4l5.4,1.8c-.2,.3-.4,.7-.6,1-.6,.9-1.2,1.9-1.2,3.1-2.4-.8-4.7-1.6-7.2-2.4-.1,0,.5-1.4,.6-1.5Zm8.4,1.4c.3-.4,.5-.8,.8-1.2,1.5,.5,3.2,1,4.7,1.5-.1,.3-.3,.7-.4,1-.4,1.1-.7,2.1-.9,3.4h0c-1.3-.6-2.8-1-4.2-1.5-.4-.1-.7-.2-1.1-.4,0-1.1,.5-2,1.1-2.8Zm4.9,4.9c.3-1.5,.8-3,1.3-4.3,.1,0,.2,.1,.3,.1,1.7,.6,3.5,1.4,4.4,3.1-.1,.6-.2,1.1-.3,1.7-.1,.9-.1,1.8-.2,2.6-.5-.3-1.1-.6-1.7-.9-.1-.1-.3-.2-.4-.3-1.1-.7-2.2-1.4-3.4-2-.1,.1,0,0,0,0Zm2.8-4.6c-.4-.2-.8-.3-1.2-.5l1.2-2.7c1,.4,2.1,.9,3.2,1.4h.3c.1,1.3,.1,2.8-.1,4v.1c-.8-1-2.1-1.7-3.4-2.3Zm-1.3-17.6c0,.3-.4,.6-.7,.7-.6,.2-1.4,.2-1.8-.4-.1-.1-.1-.2-.1-.3,0-.7,1-.6,1.4-.6h.6c.3,.1,.6,.2,.6,.6ZM36.61,.41c0-.2,.1-.4,.4-.4,1.5-.1,1.9,.8,2.5,2,.2,.4,.3,.7,.4,1.1,.1,.2,.2,.4,.2,.6,0,0,.1,.2,.1,.4h-.5v-.1c-.3-.5-.4-1-.6-1.5-.2-.5-.5-1-1-1.3-.2-.1-.4,0-.5,.1-.1,.2,0,.4,.1,.5,.2,.1,.3,.2,.5,.4l.3,.6c.2,.5,.3,.9,.5,1.4l-.6,.3-.2,.2c-.6-.3-.8-1.2-.9-1.7-.1-.3-.7-1.8-.7-2.6Zm.1,5.2c.5,0,.9-.1,1.4-.1l-.2,.2-1.8,1.8c-.5-.2-1-.3-1.5-.5,.6-.4,1.3-.9,2.1-1.4Zm-1.7,.3c-.5,.3-.9,.7-1.4,1-.5-.1-1-.3-1.5-.3,1-.3,1.9-.5,2.9-.7Zm-8.6,2.1c1.2-.5,2.5-.8,3.8-1.1,.4,0,1.8,.3,2.6,.5-.9,.7-1.9,1.3-2.9,2-.2-.1-.5-.1-.7-.2-1.3-.3-2.7-.5-4-.6l1.2-.6Zm-4.2,3.2c.6-.7,1.2-1.3,1.9-1.8h.1c1.6,.1,3.3,.4,4.8,.7-.4,.3-.7,.5-1.1,.8-1,.7-2,1.4-3,2.3-1.2-.3-2.4-.6-3.6-.8h-.1c.4-.6,.7-.9,1-1.2Zm-4.1,4.7c.9-1,1.7-2,2.7-3.1,1,.2,2.5,.6,3.5,.8-1,.9-2,1.8-2.9,2.9-1.1-.2-2.4-.3-3.5-.3,0-.2,.1-.2,.2-.3Zm-.8,.9h.2c1.1,0,2.3,.1,3.3,.3-.9,1.2-1.7,2.6-2.3,4,0,.1-.1,.3-.1,.3-.6-.1-1-.2-1.6-.3s-1.2-.2-1.7-.3c.5-1.3,1.4-2.8,2.2-4Zm8.1,11.9c-3-.5-6-.9-9-1.1-3.1-.3-6.1-.4-9.2-.6-1.4-.1-3-.3-4.4-.6-1.1-.2-2.7-.8-2.8-2.1-.1-1.1,1-1.7,1.9-2,1.3-.5,2.8-.7,4.1-.9,1.5-.2,3-.4,4.5-.3s3.2,.4,4.7,.7c3,.5,5.9,.9,8.9,1.6,3,.7,5.9,1.8,8.8,2.8,1.4,.5,2.9,.9,4.3,1.4,1.4,.5,2.8,1.1,4,1.8,.4,.2,.8,.5,1.1,.7-5.5,.4-11.3-.6-16.9-1.4Zm38.5,18.7c0,2.3-3.6-.1-4.4-.5-2.1-1.1-4.1-2.2-6.1-3.5-3-1.9-5.9-4.1-8.7-6.4-2.3-1.9-4.5-4.6-7.1-6.1,1.1,0,2.3,.1,3.3,0,.8,0,1.5-.1,2.3-.1h.1c1.8,.8,3.8,1.8,5.6,2.8s3.8,1.9,5.6,3.1c1.7,1,3.3,2.5,4.7,3.9,1,1,2,2,2.8,3.2,.9,1,2,2.3,1.9,3.6Z" fill="#004177"/>
    

</svg>

