<svg xmlns="http://www.w3.org/2000/svg" width="63.9789" height="46.1889"  viewBox="0 0 63.98 46.19">
  
      <path id="Path_1444" data-name="Path 1444"  d="M18.14,.9c3.5-.2,6.9-.3,10.4-.5,3.3-.1,6.6-.4,10-.4,2.7,0,5.5,.1,8.1,1.1,.7,.3,1.3,.6,1.9,1-1.4,.5-2.7,1-4.1,1.4-1.4,.4-2.8,.8-4.2,1.1-1.5,.3-2.9,.4-4.4,.4-3,0-6-.1-9-.1s-6,0-8.9-.2c-1.4-.1-2.9-.2-4.3-.5-.6-.1-1.2-.3-1.6-.7,1.2-2,3.8-2.4,6.1-2.6Zm-6.5,3.5c.1-.2,.1-.3,.2-.5h0c.5,.4,1.1,.6,1.7,.7l2.1,.3c3.1,.3,6.2,.3,9.3,.3s6.2,.1,9.3,.1c1.5,0,3.1,0,4.6-.2s3-.6,4.4-1c1.9-.5,3.8-1.2,5.6-1.9,.7,.5,1.3,1.2,1.8,1.9-1,.4-2.1,.7-3.2,.9-3,.7-6.1,1.2-9.2,1.5-3.1,.3-6.2,.5-9.4,.5s-6.3,.1-9.4-.3c-1.6-.2-3.1-.5-4.7-.9-.8-.2-1.5-.4-2.3-.6l-1.2-.3c.2-.1,.3-.3,.4-.5Zm-1.4,9.8c0-1.7,.1-3.3,.4-5,.1-.9,.3-1.7,.4-2.5,.1-.4,.2-.8,.3-1.3,.6,.2,1.1,.4,1.7,.5,1.5,.5,3.1,.9,4.7,1.1,3.2,.5,6.5,.5,9.7,.5s6.4-.1,9.6-.4c3.2-.3,6.4-.7,9.5-1.4,1.4-.3,2.8-.7,4.2-1.1q.1,0,.2-.1c.5,.7,.8,1.4,1.1,2.1,1,2.6,1.2,5.4,1.2,8.1,.1,2.9,0,5.8,.6,8.6,.1,.4,.2,.7,.3,1.1-.1,0-.2,.1-.2,.1-.7,.3-1.3,.6-2,.9-.8,.3-1.7,.6-2.6,.9-1.7,.6-3.4,1.2-5.2,1.4s-3.6,.1-5.4,0c-3.7-.2-7.4-.4-11-.6-1.8-.1-3.7-.2-5.5-.3s-3.6-.2-5.4-.6c-.9-.2-1.7-.4-2.6-.7-.8-.3-1.6-.5-2.4-.8-.7-.3-1.4-.7-1.9-1.3-.4-.5-.8-1-1.1-1.6,1.3-2.2,1.3-5,1.4-7.6Zm-1.8,8.2c0-.1,.1-.1,.1-.2,.5,.8,1.1,1.6,1.9,2.2,.7,.5,1.4,.8,2.2,1,.9,.3,1.7,.6,2.6,.8,1.8,.5,3.6,.7,5.4,.8,1.9,.1,3.8,.2,5.7,.4,3.8,.2,7.6,.5,11.4,.7,1.9,.1,3.7,.3,5.6,.2,1.8-.1,3.6-.6,5.3-1.2,1.6-.6,3.3-1.1,4.9-1.8,.3-.1,.5-.3,.8-.4,.2,.6,.4,1.1,.7,1.6-2.6,1.3-5.3,2.6-8.1,3.3-1.8,.5-3.7,.8-5.5,.8-2,0-3.8-.5-5.8-.8-2-.4-4-.5-6-.5-2,.1-4.1,.2-6.1-.1-1.8-.3-3.5-.7-5.3-1.1-1.6-.4-3.2-.8-4.8-1.3-2.2-.7-4.3-1.6-6.2-2.7,.4-.5,.8-1,1.1-1.6,0,0,0-.1,.1-.1Zm3.5,4.3c3.2,1.2,6.6,1.9,10,2.6,1,.2,2,.4,3,.5s2.1,0,3.1,0c2.1-.1,4.2-.1,6.2,.2s3.9,.9,5.8,1c1.9,.1,3.7,0,5.5-.4,3.3-.7,6.5-2.2,9.5-3.7,.1,.1,.1,.3,.2,.4,.4,.6,.8,1.2,1.3,1.7-1.7,.7-3.4,1.3-5.2,1.9-1.9,.6-3.8,1.3-5.9,1.5-2.1,.2-4.2,.1-6.3,.1-4.1,0-8.3,.1-12.4-.6-2-.3-4-.8-6-1.3-1.8-.5-3.6-.9-5.3-1.5-3.2-1-6.4-2.1-9.2-4.1,.1-.1,.2-.3,.3-.4l.2-.2c1.8,.9,3.5,1.6,5.2,2.3Zm-5.8-1.5c2.4,1.7,5.1,2.9,7.9,3.7,1.7,.6,3.4,1,5.2,1.5,2,.5,4.1,1.1,6.1,1.5s4.1,.7,6.1,.7c2.1,.1,4.2,.1,6.3,.1s4.3,.1,6.4,0c2.1-.1,4-.5,6-1.1,2.3-.7,4.6-1.4,6.8-2.4,.3,.3,.6,.6,.9,.8,.2,.2,.5,.4,.7,.6-1.9,1-3.9,1.8-6,2.3-1.7,.4-3.5,.7-5.3,1-2.1,.3-4.1,.5-6.2,.7-2.2,.2-4.4,.2-6.6-.1-2.2-.3-4.3-.7-6.5-.9-2.1-.2-4.3-.4-6.4-.8-1.9-.3-3.7-.8-5.5-1.4-3.6-1.2-7.1-3.1-10.2-5.3-.1-.1-.2-.1-.3-.2,.2-.3,.4-.5,.6-.7Zm8.3,6c1.8,.7,3.7,1.3,5.6,1.7,2,.5,4.1,.7,6.2,.9l3.3,.3c1.1,.1,2.2,.3,3.4,.5,2.2,.3,4.4,.5,6.6,.4,2.2-.1,4.4-.3,6.6-.6,1.8-.2,3.6-.5,5.3-.9,2.6-.5,5.1-1.3,7.4-2.6,.5,.4,1.1,.9,1.6,1.3-1.4,1.2-3.1,2.1-4.9,2.5-2.3,.5-4.7,.3-7.1,.7-2.4,.3-4.6,1.1-6.9,1.6-2.3,.5-4.7,.8-7,.7-2.4-.1-4.7-.5-7-1-2.4-.5-4.7-1.1-7-1.7-2.2-.6-4.5-1.1-6.7-1.6-2.1-.5-4.2-1.1-6-2.3-1.5-1-2.6-2.5-3.4-4.1l.9-.9c2.8,2.1,5.8,3.8,9.1,5.1Zm-10.3-3.9c.5,1.1,1.2,2.1,2.1,3,1.5,1.5,3.4,2.4,5.4,3,2.2,.6,4.5,1,6.7,1.6,2.4,.6,4.8,1.3,7.2,1.8,4.6,1.1,9.5,1.9,14.2,1.1,2.4-.4,4.7-1.2,7.1-1.7,1.2-.3,2.5-.4,3.7-.5s2.4-.1,3.6-.2c2.1-.3,4-1,5.7-2.3,.3-.2,.5-.4,.8-.6,.3,.3,.6,.5,.8,.8-2.1,1.7-4.9,2.7-7.5,3.5-2.3,.7-4.6,1.4-6.8,2.2-2.3,.8-4.5,1.7-6.9,2.1-4.8,.9-9.9,.4-14.7-.5-4.9-.8-9.6-2.1-14.4-3.5-1.2-.3-2.4-.7-3.6-1-1.1-.3-2.2-.6-3-1.4-.8-.7-1.3-1.8-1.6-2.8-.3-.9-.5-1.8-.7-2.7,.7-.6,1.3-1.3,1.9-1.9Zm-2.1,2.4c.2,1.3,.6,2.7,1.3,3.9,.5,.9,1.2,1.7,2.1,2.2,1,.5,2.2,.8,3.3,1.1,4.9,1.4,9.8,2.8,14.8,3.8,4.9,1,9.9,1.7,14.9,1.1,2.5-.3,4.8-.9,7.2-1.8,1.2-.4,2.3-.9,3.5-1.3,1.2-.4,2.3-.7,3.5-1.1,3.2-.9,6.5-2,9.1-4.1,.5,.5,.9,1,1.3,1.6,.1,.1,.2,.3,.3,.5-.7,.8-1.5,1.4-2.4,1.9-1,.6-2.2,1.1-3.3,1.5-1.2,.5-2.3,1-3.5,1.4-4.7,1.8-9.5,3.4-14.5,3.9-5.1,.5-10.3,.2-15.4-.5-4.9-.7-9.7-1.9-14.3-3.6-2.2-.8-4.4-1.7-6.3-3.1-1.6-1.2-2.9-3-3.1-5,.1-.3,.3-.6,.4-.9,.4-.5,.7-1,1.1-1.5Zm61.9,8.2c-.1,.4-.3,.6-.6,.9-.6,.5-1.3,.8-2,1.2s-1.4,.7-2.1,1.1c-5.9,2.8-12.3,4.3-18.8,4.8-7,.6-14,.2-20.9-.6-3.3-.4-6.5-.9-9.7-1.9-2.8-.8-5.8-2-7.9-4-1-1-1.7-2.2-1.9-3.5-.1-.9,0-1.9,.3-2.8,.2,1.1,.7,2.1,1.5,3,1.5,1.8,3.6,2.8,5.7,3.7,4.7,2,9.7,3.4,14.7,4.3,5.2,.9,10.5,1.4,15.7,1s10.2-1.8,15.1-3.6c2.4-.9,4.7-1.8,7-2.9,1.3-.6,2.5-1.4,3.5-2.4,.1,.3,.2,.5,.3,.8,.1,.1,.2,.5,.1,.9Z" fill="#004177"/>
</svg>
